<svg width="1206" height="1206" viewBox="0 0 1206 1206" fill="none" xmlns="http://www.w3.org/2000/svg">
<path d="M805.616 228.434C800.102 235.014 793.527 242.868 790.769 245.839C788.012 248.811 771.468 267.278 754.075 287.23C736.895 306.971 722.048 323.739 721.411 324.376C720.775 325.013 714.412 332.017 707.412 340.296C695.535 354.305 669.87 383.385 650.357 405.248C645.478 410.554 636.994 420.318 631.055 427.111C625.328 433.903 619.389 440.695 618.329 441.969C617.056 443.242 607.087 454.705 596.058 467.44C585.029 480.176 573.999 492.699 571.666 495.247C565.303 502.039 543.244 527.086 527.124 546.189C519.064 555.529 508.247 568.052 502.944 573.783C478.553 600.741 477.068 602.651 480.037 605.623C481.31 607.108 487.461 613.901 493.188 620.481C507.823 637.462 540.063 674.183 548.335 683.098C551.94 687.131 561.697 698.169 569.757 707.72C577.817 717.06 591.392 732.98 600.088 742.744C621.935 767.578 637.206 784.771 658.841 809.394C679.415 832.742 689.172 843.78 705.291 862.671C711.23 869.464 719.714 879.228 724.593 884.534C748.136 910.855 770.407 936.114 782.497 950.548C790.133 959.25 796.708 966.892 797.344 967.529C798.193 968.165 803.283 974.109 809.01 980.689L819.191 993H969.361V818.733L964.482 814.063C961.937 811.516 954.513 803.238 948.15 795.597C941.999 787.955 935.636 780.738 934.363 779.677C933.091 778.403 922.698 766.517 911.032 753.144C899.578 739.772 889.397 728.31 888.761 727.673C887.913 727.036 881.337 719.395 873.914 710.692C866.49 701.989 859.703 694.348 858.855 693.711C858.218 693.074 850.158 683.947 841.038 673.546C811.555 639.372 800.95 627.273 790.769 616.023C785.042 610.08 780.588 604.349 780.588 603.288C780.588 601.377 792.254 587.156 814.525 562.109C844.219 528.572 865.218 504.586 874.974 493.336C880.913 486.544 887.488 478.902 889.822 476.355C892.155 473.596 905.942 457.889 920.577 441.12C935.212 424.351 948.999 408.644 951.332 406.097C953.665 403.55 958.755 398.031 962.573 393.785L969.361 385.72V216.123H815.585L805.616 228.434Z" fill="#CC1933"/>
<path d="M235 602.439V990.877L240.939 991.09C254.089 991.514 642.239 991.939 642.239 991.514C642.239 990.665 592.183 932.718 574.578 913.402C570.336 908.732 561.216 898.119 554.216 890.053C547.217 881.775 540.854 874.77 540.217 874.134C539.581 873.497 531.097 863.945 521.552 852.907C511.795 841.87 501.402 829.771 498.433 826.375C495.251 822.766 482.313 808.12 469.587 793.474C456.861 778.828 438.832 758.239 429.499 747.838C410.834 726.824 390.684 703.688 379.231 690.527C375.201 685.858 370.746 680.976 369.474 679.914C368.201 678.641 358.232 667.179 347.415 654.443C336.386 641.495 326.417 630.033 325.144 628.971C319.205 623.665 302.873 602.863 302.873 600.316C302.873 597.981 321.114 575.057 326.205 570.599C327.053 569.963 334.052 561.897 342.112 552.557C350.172 543.218 357.384 535.152 358.02 534.515C358.656 533.878 365.868 525.812 374.14 516.261C396.623 490.152 462.799 414.799 465.345 412.465C466.405 411.191 473.617 403.125 481.252 394.422C488.676 385.72 495.251 378.078 495.888 377.441C497.797 375.531 570.548 292.325 586.88 273.646C595.364 263.669 603 254.966 603.848 254.33C604.697 253.693 611.272 246.052 618.696 237.349C626.331 228.646 633.543 220.58 635.24 219.731C636.724 218.882 637.997 217.184 637.997 216.123C637.997 214.849 562.488 214 436.499 214H235V602.439Z" fill="#3366B2"/>
</svg>
