<?xml version="1.0" encoding="utf-8"?>
<svg width="104" height="148" viewBox="0 0 104 111.071" fill="none" xmlns="http://www.w3.org/2000/svg">
  <defs/>
  <rect y="13.156" width="104" height="98.851" style="fill: rgb(126, 126, 126);"/>
  <path d="M0 0H88.8727L104 13.1556H0L0 0Z" style="fill: rgb(118, 118, 118);"/>
  <path d="M51.237 67.8156C61.677 67.8156 67.857 62.7156 67.857 54.6756C67.857 49.2156 64.497 45.6756 59.517 44.5956C63.777 43.0956 66.597 40.0956 66.597 35.2956C66.597 28.5756 61.077 23.6556 51.657 23.6556C41.877 23.6556 36.297 29.4156 35.817 37.2756H44.397C44.877 33.2556 47.397 30.7956 51.477 30.7956C55.437 30.7956 57.417 33.0756 57.417 36.1356C57.417 39.7956 55.377 41.8356 50.877 41.8356H47.757V48.3156H51.117C55.737 48.3156 58.017 50.4156 58.017 54.4956C58.017 58.3356 55.737 60.6756 50.877 60.6756C45.717 60.6756 43.497 57.6756 43.137 53.5356H34.377C34.737 62.2356 40.317 67.8156 51.237 67.8156Z" fill="white"/>
</svg>