<?xml version="1.0" encoding="UTF-8"?>
<svg version="1.1" xmlns="http://www.w3.org/2000/svg" width="512" height="512">
<path d="M0 0 C168.96 0 337.92 0 512 0 C512 168.96 512 337.92 512 512 C343.04 512 174.08 512 0 512 C0 343.04 0 174.08 0 0 Z " fill="#A8DDF8" transform="translate(0,0)"/>
<path d="M0 0 C0.33 0 0.66 0 1 0 C1.09153622 35.4407961 1.16202889 70.88157148 1.20426132 106.32246143 C1.2092642 110.50566459 1.21444149 114.68886751 1.21972656 118.87207031 C1.2207758 119.70487797 1.22182505 120.53768563 1.22290608 121.39572988 C1.24031589 134.88412013 1.27185675 148.37244224 1.30861118 161.86079206 C1.34600459 175.69894863 1.36823246 189.53706951 1.37635398 203.37527454 C1.38184508 211.91564336 1.39919418 220.45581964 1.43166587 228.9961292 C1.45279402 234.8508954 1.45920391 240.70556192 1.45400551 246.56036349 C1.45144099 249.93945857 1.45757795 253.31794524 1.4768219 256.69702721 C1.49666609 260.36047328 1.49195848 264.02308946 1.48101807 267.68655396 C1.49266943 268.75465148 1.5043208 269.82274901 1.51632524 270.92321312 C1.46900033 276.76923949 1.13905971 280.51149665 -3 285 C-8.30852828 289.88432065 -13.42542973 289.57002156 -20.26634216 289.52139282 C-21.40584086 289.52904392 -22.54533956 289.53669501 -23.71936852 289.54457796 C-27.54023184 289.5652269 -31.36049345 289.55725612 -35.18139648 289.54931641 C-37.91967508 289.5558229 -40.65792013 289.56824699 -43.3961792 289.58029175 C-50.0633266 289.60578105 -56.73031289 289.60937381 -63.39750081 289.60469122 C-68.81684335 289.60112422 -74.23613701 289.60462553 -79.65547371 289.61314011 C-80.4269655 289.61433048 -81.19845728 289.61552086 -81.99332761 289.61674731 C-83.56064129 289.61917083 -85.12795497 289.6215991 -86.69526864 289.62403207 C-101.39099405 289.64578111 -116.08662766 289.64145889 -130.78235824 289.62926237 C-144.22450531 289.61892284 -157.66636257 289.64143808 -171.10845231 289.67945881 C-184.91406502 289.71820816 -198.7195406 289.73472904 -212.52520806 289.72721231 C-220.2747753 289.72338721 -228.02409582 289.72837337 -235.7736187 289.75664139 C-242.37052394 289.78046169 -248.96703061 289.78328774 -255.56394129 289.75906105 C-258.92924439 289.74727725 -262.29322056 289.74834744 -265.65857124 289.76906586 C-269.30861777 289.78991833 -272.95669918 289.77386996 -276.60667419 289.7484436 C-277.66776616 289.76319217 -278.72885813 289.77794074 -279.82210439 289.79313624 C-285.83707972 289.70486217 -289.2856071 288.89790785 -293.67398411 284.67681253 C-296.21573646 281.46264125 -297.25040732 278.88695085 -297.24609566 274.79087448 C-297.2500774 273.95360069 -297.25405914 273.1163269 -297.25816154 272.25368118 C-297.25233622 271.3395483 -297.24651089 270.42541542 -297.24050903 269.48358154 C-297.24222107 268.51063141 -297.24393311 267.53768127 -297.24569702 266.5352478 C-297.24901434 263.25617204 -297.23794903 259.97729937 -297.22705078 256.69824219 C-297.2264383 254.31482576 -297.22670477 251.93140897 -297.2277813 249.54799271 C-297.22823357 243.1544111 -297.216626 236.76090407 -297.20256042 230.36734009 C-297.19118649 224.37200683 -297.19063505 218.37669189 -297.18920898 212.38134766 C-297.17870644 194.83755519 -297.15078424 177.29377666 -297.125 159.75 C-297.08375 120.5625 -297.0425 81.375 -297 41 C-198.99 41 -100.98 41 0 41 C0 27.47 0 13.94 0 0 Z " fill="#F6F8F8" transform="translate(404,116)"/>
<path d="M0 0 C1.63582031 0.00918457 1.63582031 0.00918457 3.3046875 0.01855469 C11.68831153 0.18073789 18.8017443 1.27537287 26.625 4.4375 C27.43324219 4.73785156 28.24148438 5.03820312 29.07421875 5.34765625 C45.65882679 12.03359771 58.09503554 23.96454122 66.625 39.4375 C67.0065625 40.118125 67.388125 40.79875 67.78125 41.5 C75.59776236 56.18556868 77.59170881 76.71332683 73.24243164 92.78564453 C72.20668666 96.08086165 70.98819108 99.26459738 69.625 102.4375 C69.21483643 103.39414551 69.21483643 103.39414551 68.79638672 104.37011719 C60.64752057 122.6416552 46.21198696 136.06589044 27.625 143.4375 C26.69429688 143.8190625 25.76359375 144.200625 24.8046875 144.59375 C19.03918945 146.84213364 13.80669656 148.21499762 7.625 148.4375 C6.56410156 148.47746094 5.50320313 148.51742187 4.41015625 148.55859375 C-16.031174 148.94257454 -33.68705983 143.322782 -49.234375 129.984375 C-64.21553142 115.5479879 -72.71976272 97.84224018 -73.5 77.1171875 C-73.83795038 57.89625961 -68.47850487 40.56688109 -56.375 25.4375 C-55.715 25.4375 -55.055 25.4375 -54.375 25.4375 C-54.04048828 24.58671875 -54.04048828 24.58671875 -53.69921875 23.71875 C-49.75202998 16.91887319 -41.28037617 11.95296423 -34.375 8.4375 C-33.64023438 8.02886719 -32.90546875 7.62023437 -32.1484375 7.19921875 C-21.8782434 1.67287621 -11.5824344 -0.1116466 0 0 Z " fill="#F7F8F9" transform="translate(255.375,206.5625)"/>
<path d="M0 0 C3.37228258 2.0559641 6.21943128 4.43886256 8 8 C8 13.61 8 19.22 8 25 C24.17 25 40.34 25 57 25 C57.33 19.06 57.66 13.12 58 7 C63.71799028 0.13841167 63.71799028 0.13841167 67.20703125 -0.23828125 C74.27247593 -0.43954579 74.27247593 -0.43954579 78 1.8125 C84.7515286 9.1969844 82.19536939 10.32127969 83 24 C99.17 24 115.34 24 132 24 C132 18.39 132 12.78 132 7 C137.38886453 0.26391933 137.38886453 0.26391933 141.05078125 -0.3359375 C146.55191469 -0.43094844 149.66041406 0.29547542 154 4 C156 7 156 7 157 25 C173.17 25 189.34 25 206 25 C206 19.39 206 13.78 206 8 C209.43591538 1.94980118 209.43591538 1.94980118 213 0 C217.24690062 -1.09683733 220.97261173 -1.06989484 224.90234375 1.00390625 C227.79548008 3.26041111 229.75885454 5.58400332 231 9 C231.13997227 11.78824758 231.1888913 14.46827116 231.125 17.25 C231.11597656 17.99507812 231.10695313 18.74015625 231.09765625 19.5078125 C231.07418358 21.33868059 231.03831525 23.16938238 231 25 C232.15757812 24.94199219 233.31515625 24.88398437 234.5078125 24.82421875 C236.04683448 24.77729735 237.58590033 24.73179974 239.125 24.6875 C239.88554687 24.64560547 240.64609375 24.60371094 241.4296875 24.56054688 C245.5959395 24.47075696 248.19489224 24.71116754 251.4921875 27.39453125 C263.49050576 39.86007374 255 50.67898431 255 74 C156.99 74 58.98 74 -42 74 C-42 33 -42 33 -35 25 C-31.81175432 23.40587716 -28.37103338 23.89825265 -24.875 23.9375 C-24.12089844 23.94201172 -23.36679688 23.94652344 -22.58984375 23.95117188 C-20.72652873 23.96296501 -18.86325445 23.98090058 -17 24 C-17.05220703 22.46279297 -17.05220703 22.46279297 -17.10546875 20.89453125 C-17.13362035 19.53387064 -17.16091904 18.1731922 -17.1875 16.8125 C-17.21263672 16.13896484 -17.23777344 15.46542969 -17.26367188 14.77148438 C-17.34973637 8.89041037 -15.76549558 5.92127461 -11.875 1.6875 C-7.85831592 -0.67011892 -4.54379737 -1.05453318 0 0 Z " fill="#FDDE93" transform="translate(149,83)"/>
<path d="M0 0 C45.21 0 90.42 0 137 0 C137 0.33 137 0.66 137 1 C135.34677734 1.22042969 135.34677734 1.22042969 133.66015625 1.4453125 C102.54520368 5.9140229 74.75879786 21.30150267 55 46 C46.46185777 57.78380588 38.42531514 71.75068903 35 86 C34.72414062 87.134375 34.44828125 88.26875 34.1640625 89.4375 C29.50277492 110.67284007 29.34155891 137.75352926 38 158 C38.44859375 159.05703125 38.8971875 160.1140625 39.359375 161.203125 C45.20008418 174.00018445 52.21730549 185.08772238 61 196 C61.52335937 196.67933594 62.04671875 197.35867188 62.5859375 198.05859375 C71.98634639 209.82268927 86.98247522 219.63715226 101 225 C102.16917969 225.48210937 103.33835937 225.96421875 104.54296875 226.4609375 C117.30848493 231.61618127 134.37255056 237.54248315 148 233 C147.25 238.75 147.25 238.75 145 241 C142.61546707 241.26006222 142.61546707 241.26006222 139.56085205 241.27415466 C138.40562042 241.28412979 137.25038879 241.29410492 136.06015015 241.30438232 C134.78636505 241.305047 133.51257996 241.30571167 132.20019531 241.30639648 C130.85004211 241.31401506 129.49989326 241.32244204 128.14974976 241.33161926 C124.47602047 241.35360598 120.80237443 241.36236916 117.12858677 241.36744571 C114.83330099 241.37108554 112.53803714 241.37732375 110.2427597 241.3844471 C102.2347467 241.40895983 94.2267986 241.42199661 86.21875 241.42553711 C78.75577525 241.42916986 71.29321242 241.45904147 63.83036351 241.50094169 C57.42347404 241.53565116 51.01672096 241.55108569 44.60973811 241.55178314 C40.78308241 241.552576 36.9568457 241.56131712 33.13028717 241.58978081 C29.5284396 241.61597201 25.92735792 241.61816171 22.32545853 241.60212517 C20.37757812 241.59944797 18.42971258 241.62148936 16.48196411 241.64431763 C6.93037443 241.56437127 6.93037443 241.56437127 3.23016357 238.58753967 C-0.59469671 234.14975858 -0.13840498 230.51303002 -0.12025452 224.87594604 C-0.12110894 223.91868594 -0.12196337 222.96142584 -0.12284368 221.97515786 C-0.12449896 218.74758006 -0.11897631 215.52005353 -0.11352539 212.29248047 C-0.1132435 209.98679607 -0.11340128 207.68111159 -0.1139679 205.37542725 C-0.11425581 199.09887854 -0.10836005 192.82234879 -0.10139394 186.5458045 C-0.09515939 179.99278706 -0.09455652 173.43976922 -0.09336853 166.88674927 C-0.09077622 155.8823412 -0.08435561 144.87793981 -0.07543945 133.87353516 C-0.06626422 122.53759801 -0.05919539 111.20166276 -0.05493164 99.86572266 C-0.05466364 99.16016294 -0.05439565 98.45460323 -0.05411953 97.72766292 C-0.05180676 91.59056787 -0.04965392 85.45347276 -0.04751682 79.31637764 C-0.03810261 52.87757852 -0.01818349 26.4387979 0 0 Z " fill="#F8F9F9" transform="translate(108,163)"/>
<path d="M0 0 C22.68988846 17.77984539 39.07089814 40.43375151 45.8125 68.6875 C46.03808594 69.59757812 46.26367188 70.50765625 46.49609375 71.4453125 C48.23513727 79.48089288 47.99710536 87.51358505 47.8125 95.6875 C49.16794922 95.63529297 49.16794922 95.63529297 50.55078125 95.58203125 C51.73027344 95.55496094 52.90976562 95.52789062 54.125 95.5 C55.29675781 95.46519531 56.46851563 95.43039062 57.67578125 95.39453125 C60.8125 95.6875 60.8125 95.6875 62.6953125 97.02734375 C64.54972683 99.78302938 64.37505353 101.43719069 63.8125 104.6875 C61.39831894 108.44565815 58.29526843 111.28690492 54.875 114.125 C51.60294506 116.86284189 49.02674249 119.82510093 46.328125 123.11328125 C45.82796875 123.63277344 45.3278125 124.15226563 44.8125 124.6875 C44.1525 124.6875 43.4925 124.6875 42.8125 124.6875 C42.52375 125.326875 42.235 125.96625 41.9375 126.625 C40.8125 128.6875 40.8125 128.6875 38.8125 129.6875 C34.70567602 130.27231174 33.22095282 129.98939991 29.83642578 127.48779297 C28.79411292 126.48490138 27.76863644 125.46430946 26.7578125 124.4296875 C26.21140106 123.88901642 25.66498962 123.34834534 25.10202026 122.79129028 C23.95352914 121.64687277 22.8125431 120.49488009 21.67871094 119.3359375 C19.94284288 117.56794176 18.17729675 115.83423657 16.40625 114.1015625 C15.29234201 112.9836895 14.18029679 111.8639566 13.0703125 110.7421875 C12.54229034 110.22631073 12.01426819 109.71043396 11.47024536 109.17892456 C8.96165773 106.57173033 7.85802385 105.06226532 7.41625977 101.42553711 C7.8125 98.6875 7.8125 98.6875 8.89453125 96.82421875 C11.77130088 95.11924938 14.19362099 95.40179072 17.5 95.5 C19.26923828 95.54060547 19.26923828 95.54060547 21.07421875 95.58203125 C21.97785156 95.61683594 22.88148438 95.65164063 23.8125 95.6875 C20.28503841 68.53776618 12.96785334 42.44474641 -9.67578125 24.7421875 C-12.47338247 22.66080385 -15.31535879 20.66452945 -18.1875 18.6875 C-19.07695312 18.05328125 -19.96640625 17.4190625 -20.8828125 16.765625 C-27.65568918 12.1450619 -34.31757919 9.81914736 -42.1875 7.6875 C-43.20972656 7.34589844 -44.23195313 7.00429687 -45.28515625 6.65234375 C-66.05491888 -0.25227451 -90.88617425 3.05301768 -110.2421875 12.62890625 C-123.9831874 19.81465737 -134.98079761 29.17534869 -144.1875 41.6875 C-144.75082031 42.44804687 -145.31414062 43.20859375 -145.89453125 43.9921875 C-159.24391066 62.98548176 -164.0760146 87.69846137 -160.53515625 110.48828125 C-156.90348432 129.91055421 -147.79567205 146.46185417 -134.1875 160.6875 C-133.56230469 161.38746094 -132.93710938 162.08742188 -132.29296875 162.80859375 C-126.76028461 168.78389262 -120.23570567 172.69441009 -113.1875 176.6875 C-112.51074219 177.08839844 -111.83398438 177.48929688 -111.13671875 177.90234375 C-101.01334336 183.4915244 -89.04022406 186.06153627 -77.68383789 187.61157227 C-74.99480489 188.00891417 -72.63506571 188.44540358 -70.23046875 189.74609375 C-68.47035893 193.02240304 -68.75774092 196.50177424 -68.8125 200.125 C-68.80089844 200.88876953 -68.78929687 201.65253906 -68.77734375 202.43945312 C-68.79485456 205.79277394 -68.92476859 208.14423925 -70.3984375 211.19140625 C-73.52204341 213.80350464 -76.49084371 213.21198852 -80.41015625 213.07421875 C-92.79268813 211.80651383 -104.84017505 208.82797492 -116.1875 203.6875 C-117.13254395 203.26210938 -117.13254395 203.26210938 -118.09667969 202.828125 C-127.70888453 198.44246943 -135.9943694 193.4103909 -144.1875 186.6875 C-144.86296875 186.15253906 -145.5384375 185.61757813 -146.234375 185.06640625 C-161.64454472 172.48598008 -173.17237824 154.04213366 -180.1875 135.6875 C-180.43411377 135.09702881 -180.68072754 134.50655762 -180.93481445 133.89819336 C-190.69432154 109.75498137 -188.849966 76.83142702 -179.4375 52.875 C-174.34659387 41.10707629 -168.72355729 30.33906478 -160.1875 20.6875 C-159.1046875 19.42486328 -159.1046875 19.42486328 -158 18.13671875 C-118.5312901 -27.01932261 -48.69100792 -35.41164212 0 0 Z " fill="#48D4FE" transform="translate(325.1875,185.3125)"/>
<path d="M0 0 C1.63582031 0.00918457 1.63582031 0.00918457 3.3046875 0.01855469 C11.68831153 0.18073789 18.8017443 1.27537287 26.625 4.4375 C27.43324219 4.73785156 28.24148438 5.03820312 29.07421875 5.34765625 C45.65882679 12.03359771 58.09503554 23.96454122 66.625 39.4375 C67.0065625 40.118125 67.388125 40.79875 67.78125 41.5 C75.59776236 56.18556868 77.59170881 76.71332683 73.24243164 92.78564453 C72.20668666 96.08086165 70.98819108 99.26459738 69.625 102.4375 C69.21483643 103.39414551 69.21483643 103.39414551 68.79638672 104.37011719 C60.64752057 122.6416552 46.21198696 136.06589044 27.625 143.4375 C26.69429688 143.8190625 25.76359375 144.200625 24.8046875 144.59375 C19.03918945 146.84213364 13.80669656 148.21499762 7.625 148.4375 C6.56410156 148.47746094 5.50320313 148.51742187 4.41015625 148.55859375 C-16.031174 148.94257454 -33.68705983 143.322782 -49.234375 129.984375 C-64.21553142 115.5479879 -72.71976272 97.84224018 -73.5 77.1171875 C-73.83795038 57.89625961 -68.47850487 40.56688109 -56.375 25.4375 C-55.715 25.4375 -55.055 25.4375 -54.375 25.4375 C-54.04048828 24.58671875 -54.04048828 24.58671875 -53.69921875 23.71875 C-49.75202998 16.91887319 -41.28037617 11.95296423 -34.375 8.4375 C-33.64023438 8.02886719 -32.90546875 7.62023437 -32.1484375 7.19921875 C-21.8782434 1.67287621 -11.5824344 -0.1116466 0 0 Z M-47.03125 33.66796875 C-50.40422342 37.65369901 -53.02790623 41.78364054 -55.375 46.4375 C-55.931875 47.530625 -56.48875 48.62375 -57.0625 49.75 C-63.20947362 67.02006875 -63.04669844 83.45271187 -56.375 100.4375 C-49.50443446 114.70177058 -37.74490752 124.96973058 -23.9375 132.25 C-6.59209291 138.03180236 9.73309704 138.48835464 26.65625 131.1171875 C42.24010407 123.10638611 54.01648809 110.62633344 59.8125 94.0390625 C65.19052754 76.22434627 63.37737114 59.28080848 54.64453125 42.734375 C51.54630476 37.67653524 47.86132293 33.56234075 43.625 29.4375 C43.03460938 28.81488281 42.44421875 28.19226563 41.8359375 27.55078125 C29.06484334 15.03285856 12.55285119 12.01106973 -4.60839844 12.07250977 C-21.80008211 12.47606321 -35.45032537 21.49096711 -47.03125 33.66796875 Z " fill="#045381" transform="translate(255.375,206.5625)"/>
<path d="M0 0 C0.33 0 0.66 0 1 0 C1 92.07 1 184.14 1 279 C0.67 279 0.34 279 0 279 C0 202.44 0 125.88 0 47 C-62.37 47.495 -62.37 47.495 -126 48 C-125.34 48.66 -124.68 49.32 -124 50 C-124.59310502 49.93410895 -125.18621004 49.86821791 -125.79728794 49.80033016 C-132.22869028 49.11743343 -138.63753167 48.70695803 -145.09936523 48.45727539 C-146.7086888 48.39454359 -146.7086888 48.39454359 -148.35052395 48.33054447 C-161.99397342 47.84123684 -175.64268856 47.77343028 -189.29323578 47.69608307 C-192.6938442 47.6760203 -196.09441386 47.65131987 -199.49499512 47.6270752 C-209.35080014 47.55937479 -219.20665339 47.49884749 -229.0625 47.4375 C-251.151875 47.293125 -273.24125 47.14875 -296 47 C-296 123.56 -296 200.12 -296 279 C-296.33 279 -296.66 279 -297 279 C-297 200.46 -297 121.92 -297 41 C-198.99 41 -100.98 41 0 41 C0 27.47 0 13.94 0 0 Z " fill="#E7EDF0" transform="translate(404,116)"/>
<path d="M0 0 C3.37228258 2.0559641 6.21943128 4.43886256 8 8 C8.09921225 9.39290012 8.13827954 10.79035609 8.14526367 12.18676758 C8.15164352 13.05139114 8.15802338 13.91601471 8.16459656 14.80683899 C8.16570938 15.74327744 8.1668222 16.67971588 8.16796875 17.64453125 C8.17129715 18.60646896 8.17462555 19.56840668 8.17805481 20.55949402 C8.18312412 22.59800742 8.18546313 24.63652913 8.18530273 26.67504883 C8.1874838 29.78936533 8.20562453 32.90332459 8.22460938 36.01757812 C8.2275444 37.99739462 8.22952846 39.9772128 8.23046875 41.95703125 C8.23765427 42.887397 8.24483978 43.81776276 8.25224304 44.77632141 C8.23182186 50.57804204 8.01657792 54.80009682 3.9375 59.25 C-0.00251081 61.59724048 -3.42284219 62.33097614 -8 62 C-13.05498587 59.65972876 -14.99167972 57.10799365 -17 52 C-17.4220944 48.72384261 -17.42085427 45.48341273 -17.3984375 42.18359375 C-17.40130768 41.24951187 -17.40417786 40.31542999 -17.40713501 39.3530426 C-17.40916979 37.38550202 -17.40368106 35.41794095 -17.39111328 33.45043945 C-17.37503323 30.44371262 -17.3909913 27.43832624 -17.41015625 24.43164062 C-17.40817407 22.51562204 -17.40433091 20.59960429 -17.3984375 18.68359375 C-17.40451019 17.78764999 -17.41058289 16.89170624 -17.4168396 15.96861267 C-17.34641692 9.70455687 -16.1822859 6.37484054 -11.875 1.6875 C-7.85831592 -0.67011892 -4.54379737 -1.05453318 0 0 Z " fill="#03517D" transform="translate(149,83)"/>
<path d="M0 0 C4.44925416 1.12147593 7.13517792 3.53136723 9.50918579 7.50039673 C10.45118131 9.79253134 10.63607184 11.43417135 10.66162109 13.90380859 C10.68076065 15.16564468 10.68076065 15.16564468 10.70028687 16.45297241 C10.70251251 17.35407745 10.70473816 18.2551825 10.70703125 19.18359375 C10.71368805 20.11813385 10.72034485 21.05267395 10.72720337 22.01553345 C10.73731923 23.99080439 10.74202072 25.96610943 10.74169922 27.94140625 C10.74606816 30.95500354 10.7823872 33.96713089 10.8203125 36.98046875 C10.82618181 38.90233876 10.83015044 40.8242157 10.83203125 42.74609375 C10.84640228 43.64315033 10.86077332 44.54020691 10.87557983 45.46444702 C10.835269 51.01671984 10.08511785 54.20158535 6.37109375 58.59765625 C3.80072784 60.87593512 1.9048727 62.44427836 -1.58203125 62.79296875 C-6.98863477 62.4421586 -9.93350315 60.47332291 -13.62890625 56.59765625 C-14.5809844 53.80518748 -14.77940897 51.1679808 -14.85351562 48.23144531 C-14.87603394 47.37665588 -14.89855225 46.52186646 -14.92175293 45.64117432 C-14.99324484 41.73972192 -15.05025897 37.83844455 -15.08886719 33.93652344 C-15.11547014 31.88420266 -15.15639096 29.8320155 -15.21191406 27.78027344 C-15.29133107 24.80739828 -15.32421942 21.83706379 -15.34765625 18.86328125 C-15.38064819 17.95467346 -15.41364014 17.04606567 -15.44763184 16.10992432 C-15.42824801 9.88033786 -13.81508442 6.65278047 -9.62927246 2.06610107 C-6.53438668 -0.20581743 -3.74572757 -0.31356928 0 0 Z " fill="#03517D" transform="translate(369.62890625,82.40234375)"/>
<path d="M0 0 C3.8026029 2.0050088 5.61790841 3.42686262 8 7 C8.27415466 9.10469055 8.27415466 9.10469055 8.30639648 11.55981445 C8.32238388 12.48119705 8.33837128 13.40257965 8.35484314 14.35188293 C8.36288719 15.8425251 8.36288719 15.8425251 8.37109375 17.36328125 C8.38463646 18.90039009 8.38463646 18.90039009 8.39845276 20.46855164 C8.41296684 22.63810297 8.42184486 24.80769818 8.42553711 26.97729492 C8.43741806 30.28965511 8.48658076 33.60014332 8.53710938 36.91210938 C8.54657538 39.02082425 8.55380956 41.12955056 8.55859375 43.23828125 C8.57812607 44.22597 8.59765839 45.21365875 8.61778259 46.23127747 C8.58815003 50.76967457 8.52332105 53.97910017 5.58618164 57.58666992 C2.34994236 60.60661 0.56375493 61.71568092 -3.75 62.5 C-8.46508394 61.77460247 -11.53667871 59.19055374 -15 56 C-16.18080806 53.63838388 -16.14519695 52.17235343 -16.17700195 49.5378418 C-16.19625481 48.15081306 -16.19625481 48.15081306 -16.21589661 46.73576355 C-16.22328354 45.73370377 -16.23067047 44.73164398 -16.23828125 43.69921875 C-16.246353 42.6706929 -16.25442474 41.64216705 -16.26274109 40.58247375 C-16.27658767 38.40273732 -16.28730725 36.22297914 -16.29516602 34.04321289 C-16.31237689 30.71133273 -16.35625835 27.38044514 -16.40039062 24.04882812 C-16.41051756 21.93229897 -16.41903366 19.81576137 -16.42578125 17.69921875 C-16.44328934 16.70323166 -16.46079742 15.70724457 -16.47883606 14.68107605 C-16.46520029 10.32713465 -16.44864288 7.74249712 -14.16088867 3.95629883 C-9.49496844 -0.26785876 -6.09213312 -0.86287892 0 0 Z " fill="#02507D" transform="translate(297,83)"/>
<path d="M0 0 C3.39488422 2.05107588 4.80323081 3.70484621 7 7 C7.27415466 9.10469055 7.27415466 9.10469055 7.30639648 11.55981445 C7.32238388 12.48119705 7.33837128 13.40257965 7.35484314 14.35188293 C7.36288719 15.8425251 7.36288719 15.8425251 7.37109375 17.36328125 C7.38463646 18.90039009 7.38463646 18.90039009 7.39845276 20.46855164 C7.41296684 22.63810297 7.42184486 24.80769818 7.42553711 26.97729492 C7.43741806 30.28965511 7.48658076 33.60014332 7.53710938 36.91210938 C7.54657538 39.02082425 7.55380956 41.12955056 7.55859375 43.23828125 C7.57812607 44.22597 7.59765839 45.21365875 7.61778259 46.23127747 C7.58827209 50.75098053 7.52432185 53.97889799 4.61352539 57.58276367 C0.83369566 61.07870895 -1.28193721 62.03123751 -6.4375 61.9375 C-10.90466632 60.76192992 -12.71851539 59.20335403 -16 56 C-17.17695075 53.6460985 -17.15130768 52.17933423 -17.19287109 49.55371094 C-17.20893402 48.63225281 -17.22499695 47.71079468 -17.24154663 46.76141357 C-17.28601715 42.54033123 -17.32707146 38.31940646 -17.35009766 34.09814453 C-17.36664675 31.87310316 -17.39392273 29.64811472 -17.43212891 27.42333984 C-17.48695683 24.21423782 -17.50878236 21.00638264 -17.5234375 17.796875 C-17.54610687 16.80604919 -17.56877625 15.81522339 -17.59213257 14.79437256 C-17.5782451 10.24291277 -17.52508908 7.01704185 -14.59228516 3.38769531 C-10.09201893 -0.75739828 -5.93820608 -0.69201142 0 0 Z " fill="#02507D" transform="translate(224,83)"/>
<path d="M0 0 C0.99 0.66 1.98 1.32 3 2 C3.36889648 4.91748047 3.36889648 4.91748047 3.37109375 8.6171875 C3.38848022 9.95963791 3.40606456 11.30208577 3.42382812 12.64453125 C3.43389233 14.759977 3.43749979 16.87525398 3.43579102 18.99072266 C3.43936795 21.03338838 3.46673771 23.07475369 3.49609375 25.1171875 C3.49887329 26.95192627 3.49887329 26.95192627 3.50170898 28.82373047 C3.77517537 32.03202091 3.77517537 32.03202091 5.6171875 34.39868164 C8.76715569 36.51555064 10.84891516 36.49794453 14.62890625 36.50390625 C15.91087891 36.52259766 17.19285156 36.54128906 18.51367188 36.56054688 C19.86327917 36.5630016 21.21289094 36.56363317 22.5625 36.5625 C25.21051933 36.5672518 27.85586224 36.59292377 30.50390625 36.62890625 C31.67767822 36.62963135 32.8514502 36.63035645 34.06079102 36.63110352 C37 37 37 37 38.87866211 38.33569336 C40.65405914 40.97076445 40.44924461 42.91946555 40 46 C37.68520681 48.3817875 36.29948495 48.96500281 32.97900391 49.35302734 C31.82319824 49.3473877 30.66739258 49.34174805 29.4765625 49.3359375 C27.57390625 49.35527344 27.57390625 49.35527344 25.6328125 49.375 C22.96845784 49.38021655 20.30503469 49.3672355 17.640625 49.3515625 C9.91268741 49.13488017 9.91268741 49.13488017 3.30859375 52.5078125 C2.54675781 53.33023438 1.78492188 54.15265625 1 55 C-2.89353144 55.54646055 -5.12488662 55.40702948 -8.6875 53.75 C-9.450625 53.1725 -10.21375 52.595 -11 52 C-11.763125 51.484375 -12.52625 50.96875 -13.3125 50.4375 C-15.59087282 47.14651703 -15.52432164 44.55781135 -15.62890625 40.6328125 C-15 38 -15 38 -12.50390625 35.59765625 C-8.10432837 30.70975893 -9.33884873 23.47930455 -9.375 17.3125 C-9.38007117 14.68277902 -9.36259586 12.05562862 -9.3359375 9.42578125 C-9.34439697 7.68421753 -9.34439697 7.68421753 -9.35302734 5.9074707 C-9 3 -9 3 -7.66650391 1.11791992 C-5.08950904 -0.61077324 -3.01869733 -0.31444764 0 0 Z " fill="#E3045E" transform="translate(259,238)"/>
<path d="M0 0 C4.07502794 -0.07420211 8.14979392 -0.1286257 12.2253418 -0.16479492 C13.61147919 -0.17987397 14.99756894 -0.2003405 16.38354492 -0.22631836 C18.37658146 -0.26273716 20.36996723 -0.27813018 22.36328125 -0.29296875 C23.56251221 -0.3086792 24.76174316 -0.32438965 25.99731445 -0.34057617 C29 0 29 0 30.88745117 1.33081055 C32.64784385 3.97197902 32.44900619 5.92110044 32 9 C29.68192285 11.38829015 28.30497694 11.96565686 24.97558594 12.34057617 C23.82348633 12.32486572 22.67138672 12.30915527 21.484375 12.29296875 C20.23398437 12.28330078 18.98359375 12.27363281 17.6953125 12.26367188 C16.39335937 12.23853516 15.09140625 12.21339844 13.75 12.1875 C12.43257813 12.17396484 11.11515625 12.16042969 9.7578125 12.14648438 C6.505034 12.11112809 3.25246557 12.05732152 0 12 C0 8.04 0 4.08 0 0 Z " fill="#03507E" transform="translate(267,275)"/>
<path d="M0 0 C0.99 0.66 1.98 1.32 3 2 C3.34057617 4.98095703 3.34057617 4.98095703 3.29296875 8.7578125 C3.28872391 9.42086395 3.28447906 10.08391541 3.28010559 10.76705933 C3.26329971 12.88678441 3.22564701 15.00556188 3.1875 17.125 C3.17245549 18.56118419 3.15876668 19.99738328 3.14648438 21.43359375 C3.1133909 24.95603764 3.0615968 28.47792636 3 32 C2.38511719 31.91621094 1.77023437 31.83242188 1.13671875 31.74609375 C0.32847656 31.64425781 -0.47976563 31.54242188 -1.3125 31.4375 C-2.11300781 31.33308594 -2.91351563 31.22867187 -3.73828125 31.12109375 C-6.16817116 30.85244822 -6.16817116 30.85244822 -9 32 C-9.07420211 27.92497206 -9.1286257 23.85020608 -9.16479492 19.7746582 C-9.17987397 18.38852081 -9.2003405 17.00243106 -9.22631836 15.61645508 C-9.26273716 13.62341854 -9.27813018 11.63003277 -9.29296875 9.63671875 C-9.31653442 7.83787231 -9.31653442 7.83787231 -9.34057617 6.00268555 C-9 3 -9 3 -7.66918945 1.10473633 C-5.08733256 -0.60403981 -3.01326048 -0.3138813 0 0 Z " fill="#02507E" transform="translate(259,238)"/>
<path d="M0 0 C2 2 2 2 2.1953125 4.1640625 C2.17210937 4.97617187 2.14890625 5.78828125 2.125 6.625 C2.10695313 7.44226563 2.08890625 8.25953125 2.0703125 9.1015625 C2.03550781 10.04128906 2.03550781 10.04128906 2 11 C2.66 11.33 3.32 11.66 4 12 C-1.28 12 -6.56 12 -12 12 C-11.34 11.67 -10.68 11.34 -10 11 C-10.04125 9.9275 -10.0825 8.855 -10.125 7.75 C-10.01142928 4.34287835 -9.89535315 2.73773233 -8 0 C-5.09288879 -1.4535556 -3.10402897 -0.71133997 0 0 Z " fill="#4BD0F9" transform="translate(260,331)"/>
<path d="M0 0 C0.33 0 0.66 0 1 0 C1 5.28 1 10.56 1 16 C0.67 15.34 0.34 14.68 0 14 C-1.258125 14.061875 -2.51625 14.12375 -3.8125 14.1875 C-6.37705844 14.16934383 -7.71463773 14.1515987 -10 12.9375 C-11.56257703 9.91000701 -11.3032864 7.33615038 -11 4 C-9 2 -9 2 -6.8359375 1.8046875 C-5.61777344 1.83949219 -5.61777344 1.83949219 -4.375 1.875 C-3.14910156 1.90207031 -3.14910156 1.90207031 -1.8984375 1.9296875 C-0.95871094 1.96449219 -0.95871094 1.96449219 0 2 C0 1.34 0 0.68 0 0 Z " fill="#4CD3FC" transform="translate(317,273)"/>
<path d="M0 0 C0.33 0.66 0.66 1.32 1 2 C3.97851562 1.90234375 3.97851562 1.90234375 6.95703125 1.8046875 C9 2 9 2 12 4 C12.4375 7.4375 12.4375 7.4375 12 11 C10.4375 12.9375 10.4375 12.9375 8 14 C4.25 14.1875 4.25 14.1875 1 14 C0.67 14.66 0.34 15.32 0 16 C0 10.72 0 5.44 0 0 Z " fill="#4CD3FC" transform="translate(194,273)"/>
<path d="M0 0 C3.96 0 7.92 0 12 0 C12.36 7.2 12.36 7.2 10.875 10.5 C9 12 9 12 6 12.5 C3 12 3 12 1.125 10.5 C-0.50517055 6.87739877 -0.19772667 3.95453342 0 0 Z " fill="#4AD5FF" transform="translate(250,219)"/>
</svg>
