<svg width="512" height="512" viewBox="0 0 512 512" fill="none" xmlns="http://www.w3.org/2000/svg">
<rect width="512" height="512" fill="#EBF0F3"/>
<rect width="511.943" height="512" transform="translate(0.0568848)" fill="white"/>
<rect width="511.781" height="152.726" transform="translate(0 0.0234375)" fill="#E9574E"/>
<path d="M103.043 87.3969C101.643 86.6302 100.209 85.9969 98.7425 85.4969C97.3092 84.9969 95.9592 84.7469 94.6925 84.7469C93.1259 84.7469 91.8925 85.0635 90.9925 85.6969C90.0925 86.3302 89.6425 87.2802 89.6425 88.5469C89.6425 89.4135 89.9759 90.1969 90.6425 90.8969C91.3425 91.5635 92.2259 92.1635 93.2925 92.6969C94.3925 93.2302 95.5259 93.7135 96.6925 94.1469C97.7592 94.5469 98.8092 95.0302 99.8425 95.5969C100.909 96.1302 101.859 96.8135 102.693 97.6469C103.526 98.4469 104.193 99.4635 104.693 100.697C105.193 101.897 105.443 103.38 105.443 105.147C105.443 107.014 104.959 108.747 103.993 110.347C103.026 111.947 101.609 113.247 99.7425 114.247C97.8759 115.214 95.5759 115.697 92.8425 115.697C91.4425 115.697 90.0092 115.564 88.5425 115.297C87.1092 114.997 85.6925 114.564 84.2925 113.997C82.8925 113.397 81.5425 112.647 80.2425 111.747L83.4425 106.097C84.3092 106.73 85.2425 107.297 86.2425 107.797C87.2759 108.264 88.3092 108.63 89.3425 108.897C90.3759 109.164 91.3259 109.297 92.1925 109.297C93.0592 109.297 93.9259 109.18 94.7925 108.947C95.6925 108.68 96.4259 108.247 96.9925 107.647C97.5925 107.047 97.8925 106.214 97.8925 105.147C97.8925 104.414 97.6425 103.747 97.1425 103.147C96.6759 102.547 96.0259 101.997 95.1925 101.497C94.3925 100.997 93.5092 100.564 92.5425 100.197C91.4092 99.7635 90.2425 99.2635 89.0425 98.6969C87.8425 98.1302 86.7092 97.4469 85.6425 96.6469C84.6092 95.8135 83.7592 94.7969 83.0925 93.5969C82.4592 92.3635 82.1425 90.8635 82.1425 89.0969C82.1425 86.9635 82.6092 85.1135 83.5425 83.5469C84.5092 81.9802 85.8592 80.7469 87.5925 79.8469C89.3259 78.9135 91.3259 78.3969 93.5925 78.2969C96.5592 78.2969 98.9592 78.6469 100.793 79.3469C102.659 80.0469 104.326 80.8802 105.793 81.8469L103.043 87.3969ZM126.753 100.797H136.153V106.897H126.753V100.797ZM179.996 87.3969C178.596 86.6302 177.162 85.9969 175.696 85.4969C174.262 84.9969 172.912 84.7469 171.646 84.7469C170.079 84.7469 168.846 85.0635 167.946 85.6969C167.046 86.3302 166.596 87.2802 166.596 88.5469C166.596 89.4135 166.929 90.1969 167.596 90.8969C168.296 91.5635 169.179 92.1635 170.246 92.6969C171.346 93.2302 172.479 93.7135 173.646 94.1469C174.712 94.5469 175.762 95.0302 176.796 95.5969C177.862 96.1302 178.812 96.8135 179.646 97.6469C180.479 98.4469 181.146 99.4635 181.646 100.697C182.146 101.897 182.396 103.38 182.396 105.147C182.396 107.014 181.912 108.747 180.946 110.347C179.979 111.947 178.562 113.247 176.696 114.247C174.829 115.214 172.529 115.697 169.796 115.697C168.396 115.697 166.962 115.564 165.496 115.297C164.062 114.997 162.646 114.564 161.246 113.997C159.846 113.397 158.496 112.647 157.196 111.747L160.396 106.097C161.262 106.73 162.196 107.297 163.196 107.797C164.229 108.264 165.262 108.63 166.296 108.897C167.329 109.164 168.279 109.297 169.146 109.297C170.012 109.297 170.879 109.18 171.746 108.947C172.646 108.68 173.379 108.247 173.946 107.647C174.546 107.047 174.846 106.214 174.846 105.147C174.846 104.414 174.596 103.747 174.096 103.147C173.629 102.547 172.979 101.997 172.146 101.497C171.346 100.997 170.462 100.564 169.496 100.197C168.362 99.7635 167.196 99.2635 165.996 98.6969C164.796 98.1302 163.662 97.4469 162.596 96.6469C161.562 95.8135 160.712 94.7969 160.046 93.5969C159.412 92.3635 159.096 90.8635 159.096 89.0969C159.096 86.9635 159.562 85.1135 160.496 83.5469C161.462 81.9802 162.812 80.7469 164.546 79.8469C166.279 78.9135 168.279 78.3969 170.546 78.2969C173.512 78.2969 175.912 78.6469 177.746 79.3469C179.612 80.0469 181.279 80.8802 182.746 81.8469L179.996 87.3969ZM217.096 112.247C216.696 112.58 215.946 113.03 214.846 113.597C213.779 114.164 212.463 114.664 210.896 115.097C209.329 115.53 207.596 115.73 205.696 115.697C202.796 115.63 200.196 115.114 197.896 114.147C195.629 113.147 193.696 111.797 192.096 110.097C190.529 108.397 189.329 106.447 188.496 104.247C187.663 102.047 187.246 99.6969 187.246 97.1969C187.246 94.3969 187.663 91.8302 188.496 89.4969C189.363 87.1635 190.579 85.1469 192.146 83.4469C193.746 81.7469 195.646 80.4302 197.846 79.4969C200.046 78.5635 202.479 78.0969 205.146 78.0969C207.613 78.0969 209.796 78.4302 211.696 79.0969C213.596 79.7635 215.146 80.4802 216.346 81.2469L213.496 88.0969C212.663 87.4635 211.546 86.8135 210.146 86.1469C208.779 85.4469 207.196 85.0969 205.396 85.0969C203.996 85.0969 202.646 85.3969 201.346 85.9969C200.079 86.5635 198.946 87.3802 197.946 88.4469C196.979 89.5135 196.213 90.7635 195.646 92.1969C195.079 93.5969 194.796 95.1302 194.796 96.7969C194.796 98.5635 195.046 100.18 195.546 101.647C196.079 103.114 196.829 104.38 197.796 105.447C198.763 106.48 199.913 107.28 201.246 107.847C202.613 108.414 204.146 108.697 205.846 108.697C207.813 108.697 209.496 108.38 210.896 107.747C212.296 107.114 213.363 106.447 214.096 105.747L217.096 112.247ZM255.309 78.4969V115.297H248.059V100.347H231.609V115.297H224.359V78.4969H231.609V93.3469H248.059V78.4969H255.309ZM264.789 78.4969H289.889V85.4969H272.039V93.3469H287.839V100.347H272.039V108.297H290.589V115.297H264.789V78.4969ZM298.09 115.297V78.4969H309.09C312.79 78.4969 315.94 79.0469 318.54 80.1469C321.14 81.2469 323.223 82.7135 324.79 84.5469C326.39 86.3802 327.556 88.4302 328.29 90.6969C329.023 92.9635 329.39 95.2469 329.39 97.5469C329.39 100.28 328.89 102.747 327.89 104.947C326.923 107.114 325.59 108.98 323.89 110.547C322.19 112.08 320.223 113.264 317.99 114.097C315.756 114.897 313.39 115.297 310.89 115.297H298.09ZM305.34 108.297H309.64C311.473 108.297 313.14 108.064 314.64 107.597C316.14 107.097 317.423 106.38 318.49 105.447C319.59 104.514 320.423 103.347 320.99 101.947C321.59 100.514 321.89 98.8802 321.89 97.0469C321.89 94.6469 321.49 92.6969 320.69 91.1969C319.923 89.6635 318.956 88.4802 317.79 87.6469C316.656 86.8135 315.49 86.2469 314.29 85.9469C313.09 85.6135 312.073 85.4469 311.24 85.4469H305.34V108.297ZM343.164 101.697C343.164 102.864 343.514 103.98 344.214 105.047C344.914 106.114 345.831 106.98 346.964 107.647C348.131 108.314 349.397 108.647 350.764 108.647C352.264 108.647 353.597 108.314 354.764 107.647C355.931 106.98 356.847 106.114 357.514 105.047C358.214 103.98 358.564 102.864 358.564 101.697V78.4969H365.714V101.847C365.714 104.547 365.047 106.947 363.714 109.047C362.381 111.114 360.581 112.747 358.314 113.947C356.047 115.114 353.531 115.697 350.764 115.697C348.031 115.697 345.531 115.114 343.264 113.947C341.031 112.747 339.247 111.114 337.914 109.047C336.581 106.947 335.914 104.547 335.914 101.847V78.4969H343.164V101.697ZM374.457 78.4969H381.707V108.297H399.007V115.297H374.457V78.4969ZM406.488 78.4969H431.588V85.4969H413.738V93.3469H429.538V100.347H413.738V108.297H432.288V115.297H406.488V78.4969Z" fill="#FCFCFC"/>
<path d="M148.987 207.924H197.147V392.164H169.987V233.964H148.987V207.924ZM241.136 392.164C253.082 380.591 264.469 369.204 275.296 358.004C286.122 346.804 295.829 335.977 304.416 325.524C313.189 315.071 320.096 304.991 325.136 295.284C330.176 285.391 332.696 275.871 332.696 266.724C332.696 260.564 331.669 255.337 329.616 251.044C327.562 246.564 324.856 242.924 321.496 240.124C318.322 237.324 314.682 235.271 310.576 233.964C306.469 232.471 302.269 231.724 297.976 231.724C291.816 231.724 286.589 232.751 282.296 234.804C278.002 236.671 274.456 239.191 271.656 242.364C269.042 245.537 267.082 248.897 265.776 252.444C264.656 255.991 264.096 259.537 264.096 263.084C264.096 269.244 265.029 274.844 266.896 279.884C268.762 284.737 271.469 289.031 275.016 292.764L258.216 307.604C253.922 304.804 250.189 300.884 247.016 295.844C244.029 290.804 241.696 285.391 240.016 279.604C238.522 273.631 237.776 268.311 237.776 263.644C237.776 253.564 240.202 244.137 245.056 235.364C250.096 226.404 257.376 219.217 266.896 213.804C276.602 208.391 288.362 205.684 302.176 205.684C313.936 205.684 324.202 208.391 332.976 213.804C341.749 219.217 348.562 226.404 353.416 235.364C358.269 244.137 360.696 253.844 360.696 264.484C360.696 273.817 358.829 282.964 355.096 291.924C351.362 300.884 346.322 309.751 339.976 318.524C333.816 327.297 326.909 335.977 319.256 344.564C311.789 352.964 304.322 361.457 296.856 370.044L285.096 366.124H366.856V392.164H241.136Z" fill="#5A5A5A"/>
</svg>
